#Comment line ignore any data following # character 
#Hierarchical Translation and Rotation (.htr) file 
[Header]	
#Header keywords are followed by a single value 
FileType HTR		#Single word string
DataType HTRS		#Translation followed by rotation and scale data
FileVersion 1		#integer
NumSegments 84		#integer
NumFrames 2		#integer
DataFrameRate 30		#integer, data frame rate in this file
EulerRotationOrder ZYX
CalibrationUnits mm
RotationUnits Degrees
GlobalAxisofGravity Y
BoneLengthAxis Y
ScaleFactor 1.00
[SegmentNames&Hierarchy]
#CHILD	PARENT
MASTER GLOBAL
root MASTER
chest root
L_mid_tent01 root
R_mid_tent01 root
spine01 root
Bip01_Neck chest
L_humerus chest
R_humerus chest
weapon_bone chest
Bip01_Head Bip01_Neck
eye_left_bone Bip01_Head
eye_right_bone Bip01_Head
L_forearm L_humerus
L_front_hand L_forearm
L_weapon_bone L_forearm
L_front_hand01_01 L_front_hand
L_front_hand02_01 L_front_hand
L_front_hand03_01 L_front_hand
L_front_hand01_02 L_front_hand01_01
L_front_hand02_02 L_front_hand02_01
L_front_hand03_02 L_front_hand03_01
R_forearm R_humerus
R_front_hand R_forearm
R_weapon_bone R_forearm
R_front_hand01_01 R_front_hand
R_front_hand02_01 R_front_hand
R_front_hand03_01 R_front_hand
R_front_hand01_02 R_front_hand01_01
R_front_hand02_02 R_front_hand02_01
R_front_hand03_02 R_front_hand03_01
null_rope01_connect L_mid_tent01
Rope1_Seg01 null_rope01_connect
Rope1_Seg02 Rope1_Seg01
Rope1_Seg03 Rope1_Seg02
Rope1_Seg04 Rope1_Seg03
Rope1_Seg05 Rope1_Seg04
Rope1_Seg06 Rope1_Seg05
Rope1_Seg07 Rope1_Seg06
Rope1_Seg09 Rope1_Seg07
L_mid_hand01 Rope1_Seg09
L_mid_hand02 Rope1_Seg09
L_mid_hand03 Rope1_Seg09
null_rope02_connect R_mid_tent01
Rope2_Seg01 null_rope02_connect
Rope2_Seg02 Rope2_Seg01
Rope2_Seg03 Rope2_Seg02
Rope2_Seg04 Rope2_Seg03
Rope2_Seg05 Rope2_Seg04
Rope2_Seg06 Rope2_Seg05
Rope2_Seg07 Rope2_Seg06
Rope2_Seg09 Rope2_Seg07
R_mid_hand01 Rope2_Seg09
R_mid_hand02 Rope2_Seg09
R_mid_hand03 Rope2_Seg09
spine02 spine01
spine03 spine02
pelvis spine03
null_rope03_connect pelvis
null_rope04_connect pelvis
Rope3_Seg01 null_rope03_connect
Rope3_Seg02 Rope3_Seg01
Rope3_Seg03 Rope3_Seg02
Rope3_Seg04 Rope3_Seg03
Rope3_Seg05 Rope3_Seg04
Rope3_Seg06 Rope3_Seg05
Rope3_Seg07 Rope3_Seg06
Rope3_Seg08 Rope3_Seg07
Rope3_Seg09 Rope3_Seg08
R_rear_hand01 Rope3_Seg09
R_rear_hand02 Rope3_Seg09
R_rear_hand03 Rope3_Seg09
Rope4_Seg01 null_rope04_connect
Rope4_Seg02 Rope4_Seg01
Rope4_Seg03 Rope4_Seg02
Rope4_Seg04 Rope4_Seg03
Rope4_Seg05 Rope4_Seg04
Rope4_Seg06 Rope4_Seg05
Rope4_Seg07 Rope4_Seg06
Rope4_Seg08 Rope4_Seg07
Rope4_Seg09 Rope4_Seg08
L_rear_hand01 Rope4_Seg09
L_rear_hand02 Rope4_Seg09
L_rear_hand03 Rope4_Seg09
[BasePosition]
#SegmentName Tx, Ty, Tz, Rx, Ry, Rz, BoneLength
MASTER 0.000000 0.000000 0.000000 -90.000000 0.000000 0.000000 10.000000 
root 0.000000 0.000000 0.000000 0.000000 0.000000 0.000000 10.000000 
chest 0.000000 0.000000 0.000000 0.000000 0.000000 0.000000 10.000000 
L_mid_tent01 0.000000 0.000000 0.000000 0.000000 0.000000 0.000000 10.000000 
R_mid_tent01 0.000000 0.000000 0.000000 0.000000 0.000000 0.000000 10.000000 
spine01 0.000000 0.000000 0.000000 0.000000 0.000000 0.000000 10.000000 
Bip01_Neck 0.000000 0.000000 0.000000 0.000000 0.000000 0.000000 10.000000 
L_humerus 0.000000 0.000000 0.000000 0.000000 0.000000 0.000000 10.000000 
R_humerus 0.000000 0.000000 0.000000 0.000000 0.000000 0.000000 10.000000 
weapon_bone 0.000000 0.000000 0.000000 0.000000 0.000000 0.000000 10.000000 
Bip01_Head 0.000000 0.000000 0.000000 0.000000 0.000000 0.000000 10.000000 
eye_left_bone 0.000000 0.000000 0.000000 0.000000 0.000000 0.000000 10.000000 
eye_right_bone 0.000000 0.000000 0.000000 0.000000 0.000000 0.000000 10.000000 
L_forearm 0.000000 0.000000 0.000000 0.000000 0.000000 0.000000 10.000000 
L_front_hand 0.000000 0.000000 0.000000 0.000000 0.000000 0.000000 10.000000 
L_weapon_bone 0.000000 0.000000 0.000000 0.000000 0.000000 0.000000 10.000000 
L_front_hand01_01 0.000000 0.000000 0.000000 0.000000 0.000000 0.000000 10.000000 
L_front_hand02_01 0.000000 0.000000 0.000000 0.000000 0.000000 0.000000 10.000000 
L_front_hand03_01 0.000000 0.000000 0.000000 0.000000 0.000000 0.000000 10.000000 
L_front_hand01_02 0.000000 0.000000 0.000000 0.000000 0.000000 0.000000 10.000000 
L_front_hand02_02 0.000000 0.000000 0.000000 0.000000 0.000000 0.000000 10.000000 
L_front_hand03_02 0.000000 0.000000 0.000000 0.000000 0.000000 0.000000 10.000000 
R_forearm 0.000000 0.000000 0.000000 0.000000 0.000000 0.000000 10.000000 
R_front_hand 0.000000 0.000000 0.000000 0.000000 0.000000 0.000000 10.000000 
R_weapon_bone 0.000000 0.000000 0.000000 0.000000 0.000000 0.000000 10.000000 
R_front_hand01_01 0.000000 0.000000 0.000000 0.000000 0.000000 0.000000 10.000000 
R_front_hand02_01 0.000000 0.000000 0.000000 0.000000 0.000000 0.000000 10.000000 
R_front_hand03_01 0.000000 0.000000 0.000000 0.000000 0.000000 0.000000 10.000000 
R_front_hand01_02 0.000000 0.000000 0.000000 0.000000 0.000000 0.000000 10.000000 
R_front_hand02_02 0.000000 0.000000 0.000000 0.000000 0.000000 0.000000 10.000000 
R_front_hand03_02 0.000000 0.000000 0.000000 0.000000 0.000000 0.000000 10.000000 
null_rope01_connect 0.000000 0.000000 0.000000 0.000000 0.000000 0.000000 10.000000 
Rope1_Seg01 0.000000 0.000000 0.000000 0.000000 0.000000 0.000000 10.000000 
Rope1_Seg02 0.000000 0.000000 0.000000 0.000000 0.000000 0.000000 10.000000 
Rope1_Seg03 0.000000 0.000000 0.000000 0.000000 0.000000 0.000000 10.000000 
Rope1_Seg04 0.000000 0.000000 0.000000 0.000000 0.000000 0.000000 10.000000 
Rope1_Seg05 0.000000 0.000000 0.000000 0.000000 0.000000 0.000000 10.000000 
Rope1_Seg06 0.000000 0.000000 0.000000 0.000000 0.000000 0.000000 10.000000 
Rope1_Seg07 0.000000 0.000000 0.000000 0.000000 0.000000 0.000000 10.000000 
Rope1_Seg09 0.000000 0.000000 0.000000 0.000000 0.000000 0.000000 10.000000 
L_mid_hand01 0.000000 0.000000 0.000000 0.000000 0.000000 0.000000 10.000000 
L_mid_hand02 0.000000 0.000000 0.000000 0.000000 0.000000 0.000000 10.000000 
L_mid_hand03 0.000000 0.000000 0.000000 0.000000 0.000000 0.000000 10.000000 
null_rope02_connect 0.000000 0.000000 0.000000 0.000000 0.000000 0.000000 10.000000 
Rope2_Seg01 0.000000 0.000000 0.000000 0.000000 0.000000 0.000000 10.000000 
Rope2_Seg02 0.000000 0.000000 0.000000 0.000000 0.000000 0.000000 10.000000 
Rope2_Seg03 0.000000 0.000000 0.000000 0.000000 0.000000 0.000000 10.000000 
Rope2_Seg04 0.000000 0.000000 0.000000 0.000000 0.000000 0.000000 10.000000 
Rope2_Seg05 0.000000 0.000000 0.000000 0.000000 0.000000 0.000000 10.000000 
Rope2_Seg06 0.000000 0.000000 0.000000 0.000000 0.000000 0.000000 10.000000 
Rope2_Seg07 0.000000 0.000000 0.000000 0.000000 0.000000 0.000000 10.000000 
Rope2_Seg09 0.000000 0.000000 0.000000 0.000000 0.000000 0.000000 10.000000 
R_mid_hand01 0.000000 0.000000 0.000000 0.000000 0.000000 0.000000 10.000000 
R_mid_hand02 0.000000 0.000000 0.000000 0.000000 0.000000 0.000000 10.000000 
R_mid_hand03 0.000000 0.000000 0.000000 0.000000 0.000000 0.000000 10.000000 
spine02 0.000000 0.000000 0.000000 0.000000 0.000000 0.000000 10.000000 
spine03 0.000000 0.000000 0.000000 0.000000 0.000000 0.000000 10.000000 
pelvis 0.000000 0.000000 0.000000 0.000000 0.000000 0.000000 10.000000 
null_rope03_connect 0.000000 0.000000 0.000000 0.000000 0.000000 0.000000 10.000000 
null_rope04_connect 0.000000 0.000000 0.000000 0.000000 0.000000 0.000000 10.000000 
Rope3_Seg01 0.000000 0.000000 0.000000 0.000000 0.000000 0.000000 10.000000 
Rope3_Seg02 0.000000 0.000000 0.000000 0.000000 0.000000 0.000000 10.000000 
Rope3_Seg03 0.000000 0.000000 0.000000 0.000000 0.000000 0.000000 10.000000 
Rope3_Seg04 0.000000 0.000000 0.000000 0.000000 0.000000 0.000000 10.000000 
Rope3_Seg05 0.000000 0.000000 0.000000 0.000000 0.000000 0.000000 10.000000 
Rope3_Seg06 0.000000 0.000000 0.000000 0.000000 0.000000 0.000000 10.000000 
Rope3_Seg07 0.000000 0.000000 0.000000 0.000000 0.000000 0.000000 10.000000 
Rope3_Seg08 0.000000 0.000000 0.000000 0.000000 0.000000 0.000000 10.000000 
Rope3_Seg09 0.000000 0.000000 0.000000 0.000000 0.000000 0.000000 10.000000 
R_rear_hand01 0.000000 0.000000 0.000000 0.000000 0.000000 0.000000 10.000000 
R_rear_hand02 0.000000 0.000000 0.000000 0.000000 0.000000 0.000000 10.000000 
R_rear_hand03 0.000000 0.000000 0.000000 0.000000 0.000000 0.000000 10.000000 
Rope4_Seg01 0.000000 0.000000 0.000000 0.000000 0.000000 0.000000 10.000000 
Rope4_Seg02 0.000000 0.000000 0.000000 0.000000 0.000000 0.000000 10.000000 
Rope4_Seg03 0.000000 0.000000 0.000000 0.000000 0.000000 0.000000 10.000000 
Rope4_Seg04 0.000000 0.000000 0.000000 0.000000 0.000000 0.000000 10.000000 
Rope4_Seg05 0.000000 0.000000 0.000000 0.000000 0.000000 0.000000 10.000000 
Rope4_Seg06 0.000000 0.000000 0.000000 0.000000 0.000000 0.000000 10.000000 
Rope4_Seg07 0.000000 0.000000 0.000000 0.000000 0.000000 0.000000 10.000000 
Rope4_Seg08 0.000000 0.000000 0.000000 0.000000 0.000000 0.000000 10.000000 
Rope4_Seg09 0.000000 0.000000 0.000000 0.000000 0.000000 0.000000 10.000000 
L_rear_hand01 0.000000 0.000000 0.000000 0.000000 0.000000 0.000000 10.000000 
L_rear_hand02 0.000000 0.000000 0.000000 0.000000 0.000000 0.000000 10.000000 
L_rear_hand03 0.000000 0.000000 0.000000 0.000000 0.000000 0.000000 10.000000 
#Beginning of Data. Separated by tabs
#Fr	Tx	Ty	Tz	Rx	Ry	Rz	SF
[MASTER]
11 1644.280273 2247.164307 -1196.881592 0.001660 0.001660 0.001660 3030.829834
12 1646.470337 2494.152588 -1336.742676 0.001660 0.001660 0.001660 3273.918457
[root]
11 -10.138729 -76.376007 1115.911621 -120.105247 -18.350752 -87.532898 1118.568237
12 -13.587654 -72.695152 1246.426880 -108.529076 -21.858437 -88.543686 1248.619019
[chest]
11 -84.512650 -34.090519 0.000000 -37.337170 -13.242123 178.732162 91.129311
12 -84.512650 -34.090519 0.000000 -30.953615 -9.426257 176.252884 91.129311
[L_mid_tent01]
11 27.298962 22.179192 -249.918823 -8.194827 43.663120 50.734737 252.381775
12 27.298954 22.179182 -249.918823 -6.555387 43.018951 54.212742 252.381775
[R_mid_tent01]
11 23.228794 24.509907 226.238495 166.974884 8.210710 60.258949 228.744751
12 23.228794 24.509907 226.238495 168.557297 -1.759887 60.373840 228.744751
[spine01]
11 -0.361383 -0.195265 0.000000 -0.000001 -0.000007 22.052340 0.410763
12 -0.361383 -0.195265 0.000000 -0.000001 -0.000007 22.052340 0.410763
[Bip01_Neck]
11 165.484543 71.581718 0.000119 176.643677 -1.657967 43.431911 180.302734
12 165.484543 71.581718 0.000119 176.643677 -1.657967 43.431911 180.302734
[L_humerus]
11 -13.983130 -135.272980 -120.471481 157.216919 66.882858 -110.895218 181.680161
12 -13.983130 -135.272980 -120.471481 157.309067 67.227150 -110.834221 181.680161
[R_humerus]
11 -13.983309 -135.273102 125.287651 -153.279861 -66.758820 -110.727730 184.909012
12 -13.983309 -135.273102 125.287651 -158.641083 -66.202332 -105.632629 184.909012
[weapon_bone]
11 235.964890 -300.705902 0.000000 0.000000 -89.951546 -128.212341 382.234833
12 235.964890 -300.705902 0.000000 0.000000 -89.951546 -128.212341 382.234833
[Bip01_Head]
11 213.415985 185.794525 10.757463 17.459122 6.151323 -43.831924 283.163757
12 213.428497 185.759735 11.206666 18.023237 6.150636 -43.831726 283.167786
[eye_left_bone]
11 -24.626970 125.451866 -64.772606 0.000000 -90.000000 -99.840431 143.318359
12 -24.626970 125.451866 -64.772606 0.000000 -90.000000 -99.840431 143.318359
[eye_right_bone]
11 -24.626970 125.451866 64.327362 0.000000 -89.965736 80.156380 143.117676
12 -24.626970 125.451866 64.327362 0.000000 -89.965736 80.156380 143.117676
[L_forearm]
11 322.776093 0.000000 -0.000119 0.000339 -0.002323 -106.597290 322.776093
12 322.776093 0.000000 -0.000119 0.000346 -0.002322 -106.941193 322.776093
[L_front_hand]
11 241.149185 -0.042021 -3.300071 -105.490540 -1.835781 -27.423635 241.171753
12 241.149185 -0.042021 -3.300071 -105.490540 -1.835781 -27.423635 241.171753
[L_weapon_bone]
11 156.183838 0.000000 0.000000 0.000014 0.000007 0.000001 156.183838
12 156.183838 0.000000 0.000000 0.000014 0.000007 0.000001 156.183838
[L_front_hand01_01]
11 86.095154 20.947098 -0.655860 -0.366594 -0.477154 75.385574 88.609184
12 86.095154 20.947098 -0.655860 -0.366594 -0.477154 75.385574 88.609184
[L_front_hand02_01]
11 86.935165 -11.437475 24.513514 154.399796 -59.883835 -61.369587 91.046425
12 86.935165 -11.437475 24.513514 154.399796 -59.883835 -61.369587 91.046425
[L_front_hand03_01]
11 86.637497 -14.123976 -20.424902 -153.913849 58.118122 -62.702866 90.126129
12 86.637497 -14.123976 -20.424902 -153.913849 58.118122 -62.702866 90.126129
[L_front_hand01_02]
11 71.020905 -0.000179 0.000030 0.000334 -0.002323 -106.379684 71.020905
12 71.020905 -0.000179 0.000030 0.000334 -0.002323 -106.379684 71.020905
[L_front_hand02_02]
11 71.020927 -0.000119 0.000060 0.000334 -0.002323 -106.379684 71.020927
12 71.020927 -0.000119 0.000060 0.000334 -0.002323 -106.379684 71.020927
[L_front_hand03_02]
11 71.020905 -0.000060 0.000060 0.000334 -0.002323 -106.379684 71.020905
12 71.020905 -0.000060 0.000060 0.000334 -0.002323 -106.379684 71.020905
[R_forearm]
11 322.776428 -0.000060 0.000030 0.206552 0.051689 -105.218300 322.776428
12 322.776428 -0.000060 0.000030 0.205410 0.053059 -105.563782 322.776428
[R_front_hand]
11 238.847015 -0.006795 2.210259 -2.635298 -10.645461 -26.312506 238.857239
12 238.847015 -0.006795 2.210259 -2.635298 -10.645461 -26.312506 238.857239
[R_weapon_bone]
11 155.664093 0.002503 -0.000030 0.003487 0.001180 -90.988930 155.664078
12 155.664093 0.002503 -0.000030 0.003487 0.001180 -90.988930 155.664078
[R_front_hand01_01]
11 87.624611 14.231146 22.918642 -154.633499 -59.950619 61.746044 91.683487
12 87.624611 14.231146 22.918642 -154.633499 -59.950619 61.746044 91.683487
[R_front_hand02_01]
11 89.356956 14.367283 -19.491137 154.602661 58.302849 63.744389 92.579636
12 89.356956 14.367283 -19.491137 154.602661 58.302849 63.744389 92.579636
[R_front_hand03_01]
11 87.286232 -22.307278 -0.143439 0.162155 -0.423168 -75.767921 90.091743
12 87.286232 -22.307278 -0.143439 0.162155 -0.423168 -75.767921 90.091743
[R_front_hand01_02]
11 71.020905 0.000060 0.000119 0.002323 -0.000334 106.381714 71.020905
12 71.020905 0.000060 0.000119 0.002323 -0.000334 106.381714 71.020905
[R_front_hand02_02]
11 71.020844 -0.000030 -0.000119 0.002323 -0.000334 106.381714 71.020836
12 71.020844 -0.000030 -0.000119 0.002323 -0.000334 106.381714 71.020836
[R_front_hand03_02]
11 71.020905 0.000000 0.000030 0.002323 -0.000334 106.381714 71.020905
12 71.020905 0.000000 0.000030 0.002323 -0.000334 106.381714 71.020905
[null_rope01_connect]
11 328.732483 0.000000 -0.000238 -142.512482 -19.500666 -155.361145 328.732483
12 328.732483 0.000000 -0.000238 -138.338242 -30.494070 -162.490402 328.732483
[Rope1_Seg01]
11 -0.000029 -0.000179 0.000000 -20.843090 -13.585464 -169.013504 0.000181
12 -0.000030 -0.000193 0.000000 -8.632792 -0.373968 -163.735367 0.000195
[Rope1_Seg02]
11 139.999863 -0.000179 0.000000 16.864326 2.402471 17.489376 139.999863
12 139.999863 -0.000179 0.000000 12.284885 0.623962 15.064384 139.999863
[Rope1_Seg03]
11 139.999924 0.000060 -0.000060 31.647787 14.797995 18.296150 139.999924
12 139.999924 0.000060 -0.000060 23.380156 8.625191 14.914185 139.999924
[Rope1_Seg04]
11 139.999924 -0.000060 -0.000119 25.115078 7.566411 17.592131 139.999924
12 139.999924 -0.000060 -0.000119 25.985331 5.081992 16.912600 139.999924
[Rope1_Seg05]
11 139.999832 0.000119 -0.000060 13.750506 0.230076 11.395946 139.999832
12 139.999832 0.000119 -0.000060 16.684534 0.128758 11.119752 139.999832
[Rope1_Seg06]
11 139.999954 0.000119 -0.000060 6.548154 1.924006 3.040145 139.999954
12 139.999954 0.000119 -0.000060 8.263223 1.793276 3.216192 139.999954
[Rope1_Seg07]
11 139.999985 0.000060 0.000000 3.943810 1.352410 1.592350 139.999985
12 139.999985 0.000060 0.000000 4.948635 1.354069 1.585017 139.999985
[Rope1_Seg09]
11 121.602913 0.000119 -0.000089 -89.793175 -1.359789 0.847147 121.602913
12 121.602913 0.000119 -0.000089 -89.793175 -1.359789 0.847147 121.602913
[L_mid_hand01]
11 103.859421 1.038730 8.195221 130.544373 -67.584534 -38.866943 104.187431
12 103.859421 1.038730 8.195221 130.544373 -67.584534 -38.866943 104.187431
[L_mid_hand02]
11 105.572853 -4.139662 -10.864139 -168.923172 43.409309 -73.498886 106.211075
12 105.572853 -4.139662 -10.864139 -168.923172 43.409309 -73.498886 106.211075
[L_mid_hand03]
11 104.641464 17.579376 -3.913581 -6.012627 17.808174 74.893669 106.179977
12 104.641464 17.579376 -3.913581 -6.012627 17.808174 74.893669 106.179977
[null_rope02_connect]
11 328.732849 0.000179 -0.000119 5.336895 46.137035 139.242584 328.732849
12 328.732849 0.000179 -0.000119 -7.501757 64.810410 122.293198 328.732849
[Rope2_Seg01]
11 0.000000 -0.000070 -0.000036 39.353519 29.440882 -30.441299 0.000079
12 0.000000 -0.000096 -0.000032 42.680145 17.849323 -30.549995 0.000102
[Rope2_Seg02]
11 139.999741 -0.000060 -0.000119 -4.108880 -3.584735 -3.618498 139.999756
12 139.999741 -0.000060 -0.000119 -6.271248 -3.625450 -3.690530 139.999756
[Rope2_Seg03]
11 140.000107 0.000030 0.000000 -6.431974 -4.799177 -5.625970 140.000107
12 140.000107 0.000030 0.000000 -8.773827 -4.138101 -5.276747 140.000107
[Rope2_Seg04]
11 139.999802 0.000000 -0.000060 -10.393798 -6.257774 -9.393018 139.999802
12 139.999802 0.000000 -0.000060 -11.880448 -4.413833 -7.601680 139.999802
[Rope2_Seg05]
11 139.999985 -0.000060 0.000119 -18.329987 -9.759796 -18.465616 139.999985
12 139.999985 -0.000060 0.000119 -17.250166 -6.675021 -11.107775 139.999985
[Rope2_Seg06]
11 139.999893 -0.000030 -0.000119 -14.992981 -2.086867 -22.010588 139.999893
12 139.999893 -0.000030 -0.000119 -11.827070 1.508806 -12.100445 139.999893
[Rope2_Seg07]
11 139.999893 0.000060 -0.000060 -2.685688 6.764469 -7.814324 139.999893
12 139.999893 0.000060 -0.000060 -1.606403 9.826570 -5.922434 139.999893
[Rope2_Seg09]
11 121.338966 0.000089 -0.000060 33.793236 -1.359788 -0.847141 121.338966
12 121.338966 0.000089 -0.000060 33.793236 -1.359788 -0.847141 121.338966
[R_mid_hand01]
11 104.680779 11.144459 -10.335981 -16.212063 45.237247 70.462852 105.778534
12 104.680779 11.144459 -10.335981 -16.212063 45.237247 70.462852 105.778534
[R_mid_hand02]
11 104.070427 2.443552 8.231699 49.067368 -67.749771 39.286453 104.424065
12 104.070427 2.443552 8.231699 49.067368 -67.749771 39.286453 104.424065
[R_mid_hand03]
11 106.028137 -11.221827 -5.996406 -177.101105 15.551026 -76.585571 106.788818
12 106.028137 -11.221827 -5.996406 -177.101105 15.551026 -76.585571 106.788818
[spine02]
11 129.756927 0.001550 0.000119 0.072787 -4.061144 -8.848255 129.756927
12 129.756927 0.001550 0.000119 0.106409 -4.059531 -9.332810 129.756927
[spine03]
11 78.614128 0.081333 -4.899085 1.723844 3.912935 13.932391 78.766678
12 78.614136 0.081370 -4.899091 1.745148 3.904423 14.242105 78.766685
[pelvis]
11 169.435242 0.051022 0.000000 -0.042487 -0.183521 8.962573 169.435257
12 169.435242 0.051022 0.000000 -0.045940 -0.183086 9.580477 169.435257
[null_rope03_connect]
11 -1.257226 -2.466202 137.391083 -165.602234 -61.417442 -121.618675 137.418976
12 -1.257226 -2.466202 137.391083 -161.974762 -72.831261 -122.568428 137.418976
[null_rope04_connect]
11 -1.259640 -2.480268 -137.844437 -165.602234 -61.417442 -121.618675 137.872513
12 -1.259640 -2.480268 -137.844437 -161.974762 -72.831261 -122.568428 137.872513
[Rope3_Seg01]
11 0.000000 0.000000 0.000000 17.907980 -31.274019 -74.970779 0.000000
12 0.000000 0.000000 0.000000 17.075441 -29.933462 -73.512512 0.000000
[Rope3_Seg02]
11 139.999924 -0.000119 0.000060 -0.973146 12.132646 -2.618629 139.999924
12 139.999924 -0.000119 0.000060 0.262431 14.913476 1.268067 139.999924
[Rope3_Seg03]
11 139.999924 -0.000119 0.000119 2.680280 17.544062 8.852318 139.999924
12 139.999924 -0.000119 0.000119 3.377917 16.397060 7.881961 139.999924
[Rope3_Seg04]
11 139.999924 0.000119 0.000000 1.360351 4.003458 -5.059866 139.999924
12 139.999924 0.000119 0.000000 2.596973 7.631232 0.189777 139.999924
[Rope3_Seg05]
11 139.999924 -0.000238 0.000060 8.301389 -21.689331 -43.631626 139.999924
12 139.999924 -0.000238 0.000060 3.159867 -11.234804 -23.910902 139.999924
[Rope3_Seg06]
11 139.999893 -0.000119 -0.000060 0.484081 -11.859442 -21.540491 139.999893
12 139.999893 -0.000119 -0.000060 2.326264 -12.216561 -23.159941 139.999893
[Rope3_Seg07]
11 139.999771 0.000060 -0.000119 -1.811894 -3.376827 -7.085234 139.999771
12 139.999771 0.000060 -0.000119 -0.272676 -4.700842 -10.117832 139.999771
[Rope3_Seg08]
11 139.999985 -0.000060 0.000000 -1.434680 -1.552268 -3.560787 139.999985
12 139.999985 -0.000060 0.000000 -0.304442 -2.438933 -5.390834 139.999985
[Rope3_Seg09]
11 90.185997 -0.000179 -0.000060 89.793228 -1.359877 -0.847183 90.185997
12 90.185997 -0.000179 -0.000060 89.793228 -1.359877 -0.847183 90.185997
[R_rear_hand01]
11 103.366196 -6.073594 -10.757982 172.856537 -15.220671 -75.434441 104.101845
12 103.366196 -6.073594 -10.757982 172.856537 -15.220671 -75.434441 104.101845
[R_rear_hand02]
11 100.509819 12.039542 -7.992327 -12.874829 36.868488 72.167213 101.543350
12 100.509819 12.039542 -7.992327 -12.874829 36.868488 72.167213 101.543350
[R_rear_hand03]
11 101.539970 5.215704 5.435467 71.484581 -71.816628 21.513813 101.819031
12 101.539970 5.215704 5.435467 71.484581 -71.816628 21.513813 101.819031
[Rope4_Seg01]
11 -0.000116 -0.000018 -0.000071 -92.057343 -47.346764 -118.572495 0.000138
12 -0.000120 -0.000016 -0.000071 -96.008514 -35.033501 -112.131523 0.000141
[Rope4_Seg02]
11 139.999985 0.000060 0.000119 -0.088726 -4.344817 9.692323 139.999985
12 139.999985 0.000060 0.000119 0.148030 -8.024601 7.607172 139.999985
[Rope4_Seg03]
11 139.999924 0.000000 -0.000238 0.302579 -7.881509 2.469644 139.999924
12 139.999924 0.000000 -0.000238 0.821291 -8.655303 2.871174 139.999924
[Rope4_Seg04]
11 139.999985 0.000000 0.000119 1.111545 6.785817 14.019488 139.999985
12 139.999985 0.000000 0.000119 1.750026 4.297804 12.192040 139.999985
[Rope4_Seg05]
11 139.999802 -0.000060 -0.000119 -0.353079 7.981414 10.442449 139.999802
12 139.999802 -0.000060 -0.000119 0.317707 4.313853 7.065734 139.999802
[Rope4_Seg06]
11 139.999924 0.000000 0.000060 -0.655446 2.374589 3.877021 139.999924
12 139.999924 0.000000 0.000060 -0.046658 1.358505 3.018528 139.999924
[Rope4_Seg07]
11 139.999802 0.000000 0.000000 -0.481001 1.466529 2.488546 139.999802
12 139.999802 0.000000 0.000000 -0.026906 0.907342 2.014506 139.999802
[Rope4_Seg08]
11 139.999924 0.000000 0.000119 -1.876492 0.867286 1.506069 139.999924
12 139.999924 0.000000 0.000119 -1.580030 0.557929 1.240433 139.999924
[Rope4_Seg09]
11 90.185791 0.000060 0.000060 -135.617828 2.228885 0.850567 90.185791
12 90.185791 0.000060 0.000060 -135.617828 2.228885 0.850567 90.185791
[L_rear_hand01]
11 101.696655 -8.392275 -7.654577 -12.874829 -36.868488 107.832764 102.329041
12 101.696655 -8.392275 -7.654577 -12.874829 -36.868488 107.832764 102.329041
[L_rear_hand02]
11 102.726799 -1.568258 5.773216 71.484581 71.816628 158.486160 102.900848
12 102.726799 -1.568258 5.773216 71.484581 71.816628 158.486160 102.900848
[L_rear_hand03]
11 104.552910 9.721220 -10.420293 -177.714203 -24.565960 -106.089035 105.519653
12 104.552910 9.721220 -10.420293 -177.714203 -24.565960 -106.089035 105.519653
